# xmcd
#
# Track frame offsets:
#	150
#	10530
#	22324
#	38723
#	53710
#	65671
#	80001
#	93752
#	106203
#	126542
#	141526
#	154683
#	167909
#	179874
#	191167
#	207495
#	218137
#	231290
#	242218
#	255971
#
# Disc length: 3771 seconds
#
# Revision: 0
# Processed by: cddbd v1.5.1PL0 Copyright (c) Steve Scherf et al.
# Submitted via: audiograbber 1.82.02
#
DISCID=290eb914
DTITLE=Diverse - Gouden jordaan Successen
DYEAR=1998
DGENRE=Folk
TTITLE0=Johnny Jordaan - Tante Leen
TTITLE1=Tante Leen - Op die ouwe nieuwendijk
TTITLE2=Johnny Jordaan and Willy Alberti - Oh Donna Clara
TTITLE3=Tante Leen - Kleine kinderen worden groot
TTITLE4=Johnny Jordaan - Al m`n tranen
TTITLE5=Johnny Jordaan - Want het hart van een echte jordaner
TTITLE6=Tante Leen - Deze wals
TTITLE7=Tante Leen - De oude straatmuzikant
TTITLE8=Johnny Jordaan and Willy Alberti - Penny Serenade
TTITLE9=Johnny Jordaan - Amsterdam ik vergeet je niet
TTITLE10=Tante Leen - die goede moeder
TTITLE11=tante Leen - Waarom wil je niets meer van me weten
TTITLE12=Johnny Jordaan  - ABC Potpourri
TTITLE13=Johnny Jordaan and Willy Alberti - Korenbloemen blauw
TTITLE14=Johnny Jordaan - Der parel van de Jordaan
TTITLE15=Tante Leen - Amsterdam zonder pierement
TTITLE16=Johnny Jordaan - Villa Medley
TTITLE17=Tante Leen - Zo moet ie zijn
TTITLE18=Johnny Jordaan and Willy Alberti - Mijn vissersmeisje
TTITLE19=Johnny Jordaan  - De terugkeer van Manke Nelis
EXTD=
EXTT0=
EXTT1=
EXTT2=
EXTT3=
EXTT4=
EXTT5=
EXTT6=
EXTT7=
EXTT8=
EXTT9=
EXTT10=
EXTT11=
EXTT12=
EXTT13=
EXTT14=
EXTT15=
EXTT16=
EXTT17=
EXTT18=
EXTT19=
PLAYORDER=
